<svg xmlns="http://www.w3.org/2000/svg" viewBox="0 0 200 80" fill="currentColor" aria-hidden="true"><rect x="1.67" y="5.96" width="5" height="68.08" rx="2.50"/><rect x="10.00" y="24.82" width="5" height="30.35" rx="2.50"/><rect x="18.33" y="34.48" width="5" height="11.03" rx="2.50"/><rect x="26.67" y="28.43" width="5" height="23.15" rx="2.50"/><rect x="35.00" y="29.72" width="5" height="20.56" rx="2.50"/><rect x="43.33" y="32.86" width="5" height="14.29" rx="2.50"/><rect x="51.67" y="33.62" width="5" height="12.76" rx="2.50"/><rect x="60.00" y="38.00" width="5" height="4.00" rx="2.50"/><rect x="68.33" y="36.47" width="5" height="7.06" rx="2.50"/><rect x="76.67" y="2.00" width="5" height="76.00" rx="2.50"/><rect x="85.00" y="28.02" width="5" height="23.95" rx="2.50"/><rect x="93.33" y="30.92" width="5" height="18.17" rx="2.50"/><rect x="101.67" y="21.91" width="5" height="36.18" rx="2.50"/><rect x="110.00" y="29.49" width="5" height="21.01" rx="2.50"/><rect x="118.33" y="34.78" width="5" height="10.44" rx="2.50"/><rect x="126.67" y="37.16" width="5" height="5.68" rx="2.50"/><rect x="135.00" y="37.89" width="5" height="4.21" rx="2.50"/><rect x="143.33" y="38.00" width="5" height="4.00" rx="2.50"/><rect x="151.67" y="38.00" width="5" height="4.00" rx="2.50"/><rect x="160.00" y="38.00" width="5" height="4.00" rx="2.50"/><rect x="168.33" y="38.00" width="5" height="4.00" rx="2.50"/><rect x="176.67" y="38.00" width="5" height="4.00" rx="2.50"/><rect x="185.00" y="38.00" width="5" height="4.00" rx="2.50"/><rect x="193.33" y="38.00" width="5" height="4.00" rx="2.50"/></svg>
