<svg xmlns="http://www.w3.org/2000/svg" viewBox="0 0 200 80" fill="currentColor" aria-hidden="true"><rect x="1.67" y="38.00" width="5" height="4.00" rx="2.50"/><rect x="10.00" y="34.10" width="5" height="11.80" rx="2.50"/><rect x="18.33" y="2.00" width="5" height="76.00" rx="2.50"/><rect x="26.67" y="6.58" width="5" height="66.85" rx="2.50"/><rect x="35.00" y="10.66" width="5" height="58.68" rx="2.50"/><rect x="43.33" y="12.82" width="5" height="54.36" rx="2.50"/><rect x="51.67" y="18.33" width="5" height="43.34" rx="2.50"/><rect x="60.00" y="24.53" width="5" height="30.95" rx="2.50"/><rect x="68.33" y="24.65" width="5" height="30.70" rx="2.50"/><rect x="76.67" y="22.88" width="5" height="34.25" rx="2.50"/><rect x="85.00" y="28.68" width="5" height="22.64" rx="2.50"/><rect x="93.33" y="33.36" width="5" height="13.27" rx="2.50"/><rect x="101.67" y="31.32" width="5" height="17.35" rx="2.50"/><rect x="110.00" y="34.19" width="5" height="11.62" rx="2.50"/><rect x="118.33" y="35.87" width="5" height="8.26" rx="2.50"/><rect x="126.67" y="35.78" width="5" height="8.44" rx="2.50"/><rect x="135.00" y="36.15" width="5" height="7.71" rx="2.50"/><rect x="143.33" y="37.41" width="5" height="5.17" rx="2.50"/><rect x="151.67" y="37.55" width="5" height="4.90" rx="2.50"/><rect x="160.00" y="37.83" width="5" height="4.34" rx="2.50"/><rect x="168.33" y="38.00" width="5" height="4.00" rx="2.50"/><rect x="176.67" y="38.00" width="5" height="4.00" rx="2.50"/><rect x="185.00" y="38.00" width="5" height="4.00" rx="2.50"/><rect x="193.33" y="38.00" width="5" height="4.00" rx="2.50"/></svg>
