<svg xmlns="http://www.w3.org/2000/svg" viewBox="0 0 200 80" fill="currentColor" aria-hidden="true"><rect x="1.67" y="38.00" width="5" height="4.00" rx="2.50"/><rect x="10.00" y="36.20" width="5" height="7.60" rx="2.50"/><rect x="18.33" y="2.00" width="5" height="76.00" rx="2.50"/><rect x="26.67" y="5.33" width="5" height="69.33" rx="2.50"/><rect x="35.00" y="17.11" width="5" height="45.78" rx="2.50"/><rect x="43.33" y="20.99" width="5" height="38.02" rx="2.50"/><rect x="51.67" y="22.29" width="5" height="35.42" rx="2.50"/><rect x="60.00" y="22.52" width="5" height="34.97" rx="2.50"/><rect x="68.33" y="26.44" width="5" height="27.13" rx="2.50"/><rect x="76.67" y="28.94" width="5" height="22.13" rx="2.50"/><rect x="85.00" y="29.82" width="5" height="20.36" rx="2.50"/><rect x="93.33" y="32.04" width="5" height="15.93" rx="2.50"/><rect x="101.67" y="33.16" width="5" height="13.68" rx="2.50"/><rect x="110.00" y="35.24" width="5" height="9.52" rx="2.50"/><rect x="118.33" y="36.95" width="5" height="6.10" rx="2.50"/><rect x="126.67" y="37.13" width="5" height="5.73" rx="2.50"/><rect x="135.00" y="37.43" width="5" height="5.15" rx="2.50"/><rect x="143.33" y="37.75" width="5" height="4.50" rx="2.50"/><rect x="151.67" y="38.00" width="5" height="4.00" rx="2.50"/><rect x="160.00" y="38.00" width="5" height="4.00" rx="2.50"/><rect x="168.33" y="38.00" width="5" height="4.00" rx="2.50"/><rect x="176.67" y="38.00" width="5" height="4.00" rx="2.50"/><rect x="185.00" y="38.00" width="5" height="4.00" rx="2.50"/><rect x="193.33" y="38.00" width="5" height="4.00" rx="2.50"/></svg>
