<svg xmlns="http://www.w3.org/2000/svg" viewBox="0 0 200 80" fill="currentColor" aria-hidden="true"><rect x="1.67" y="38.00" width="5" height="4.00" rx="2.50"/><rect x="10.00" y="38.00" width="5" height="4.00" rx="2.50"/><rect x="18.33" y="2.00" width="5" height="76.00" rx="2.50"/><rect x="26.67" y="10.08" width="5" height="59.83" rx="2.50"/><rect x="35.00" y="17.47" width="5" height="45.06" rx="2.50"/><rect x="43.33" y="20.27" width="5" height="39.45" rx="2.50"/><rect x="51.67" y="20.71" width="5" height="38.58" rx="2.50"/><rect x="60.00" y="22.55" width="5" height="34.91" rx="2.50"/><rect x="68.33" y="24.79" width="5" height="30.42" rx="2.50"/><rect x="76.67" y="29.63" width="5" height="20.75" rx="2.50"/><rect x="85.00" y="29.30" width="5" height="21.40" rx="2.50"/><rect x="93.33" y="35.11" width="5" height="9.79" rx="2.50"/><rect x="101.67" y="35.47" width="5" height="9.05" rx="2.50"/><rect x="110.00" y="35.17" width="5" height="9.65" rx="2.50"/><rect x="118.33" y="36.07" width="5" height="7.85" rx="2.50"/><rect x="126.67" y="36.34" width="5" height="7.33" rx="2.50"/><rect x="135.00" y="37.03" width="5" height="5.95" rx="2.50"/><rect x="143.33" y="38.00" width="5" height="4.00" rx="2.50"/><rect x="151.67" y="38.00" width="5" height="4.00" rx="2.50"/><rect x="160.00" y="38.00" width="5" height="4.00" rx="2.50"/><rect x="168.33" y="38.00" width="5" height="4.00" rx="2.50"/><rect x="176.67" y="38.00" width="5" height="4.00" rx="2.50"/><rect x="185.00" y="38.00" width="5" height="4.00" rx="2.50"/><rect x="193.33" y="38.00" width="5" height="4.00" rx="2.50"/></svg>
