<svg width="1024" height="1024" viewBox="0 0 1024 1024" fill="none" xmlns="http://www.w3.org/2000/svg">
  <g transform="translate(106.5 242.675) scale(1.51305970149)">
    <path d="M297.2 0C329.683 0 345.924 -9.16575e-05 358.331 6.32129C369.244 11.8819 378.118 20.7555 383.679 31.6689C389.095 42.3002 389.868 55.7471 389.979 79.8154C402.327 74.7767 415.839 72 430 72C488.542 72 536 119.458 536 178C536 236.542 488.542 284 430 284C415.839 284 402.327 281.222 389.979 276.184C389.868 300.253 389.095 313.7 383.679 324.331C378.118 335.244 369.244 344.118 358.331 349.679C345.924 356 329.683 356 297.2 356H238.8C206.317 356 190.076 356 177.669 349.679C166.756 344.118 157.882 335.244 152.321 324.331C146.905 313.7 146.131 300.253 146.021 276.184C133.672 281.222 120.16 284 106 284C47.4578 284 0 236.542 0 178C0 119.458 47.4578 72 106 72C120.16 72 133.672 74.777 146.021 79.8154C146.131 55.7471 146.905 42.3002 152.321 31.6689C157.882 20.7555 166.756 11.8819 177.669 6.32129C190.076 -9.16575e-05 206.317 0 238.8 0H297.2ZM201.8 271C197.32 271 195.079 271 193.368 271.872C191.863 272.639 190.639 273.863 189.872 275.368C189 277.079 189 279.32 189 283.8V301.2C189 305.68 189 307.921 189.872 309.632C190.639 311.137 191.863 312.361 193.368 313.128C195.079 314 197.32 314 201.8 314H334.2C338.68 314 340.921 314 342.632 313.128C344.137 312.361 345.361 311.137 346.128 309.632C347 307.921 347 305.68 347 301.2V283.8C347 279.32 347 277.079 346.128 275.368C345.361 273.863 344.137 272.639 342.632 271.872C340.921 271 338.68 271 334.2 271H201.8ZM201.8 182C197.32 182 195.079 182 193.368 182.872C191.863 183.639 190.639 184.863 189.872 186.368C189 188.079 189 190.32 189 194.8V212.2C189 216.68 189 218.921 189.872 220.632C190.639 222.137 191.863 223.361 193.368 224.128C195.079 225 197.32 225 201.8 225H334.2C338.68 225 340.921 225 342.632 224.128C344.137 223.361 345.361 222.137 346.128 220.632C347 218.921 347 216.68 347 212.2V194.8C347 190.32 347 188.079 346.128 186.368C345.361 184.863 344.137 183.639 342.632 182.872C340.921 182 338.68 182 334.2 182H201.8ZM219 66C201.879 66 188 79.8792 188 97C188 114.121 201.879 128 219 128C236.121 128 250 114.121 250 97C250 79.8792 236.121 66 219 66ZM317 66C299.879 66 286 79.8792 286 97C286 114.121 299.879 128 317 128C334.121 128 348 114.121 348 97C348 79.8792 334.121 66 317 66Z" fill="white"/>
  </g>
</svg>
